{"glyphs":{"0":{"ha":1389,"x_min":87,"x_max":1302,"o":"m 434 694 q 260 521 260 694 l 260 347 q 434 174 260 174 l 955 174 q 1128 347 1128 174 l 1128 521 q 955 694 1128 694 l 434 694 m 434 868 l 955 868 q 1302 521 1302 868 l 1302 347 q 955 0 1302 0 l 434 0 q 87 347 87 0 l 87 521 q 434 868 87 868 z "},"1":{"ha":347,"x_min":87,"x_max":260,"o":"m 260 868 l 260 0 l 87 0 l 87 868 l 260 868 z "},"2":{"ha":1389,"x_min":87,"x_max":1302,"o":"m 87 868 l 955 868 q 1302 608 1302 868 q 955 347 1302 347 l 434 347 q 260 260 260 347 l 260 174 l 1302 174 l 1302 0 l 87 0 l 87 260 q 434 521 87 521 l 955 521 q 1128 608 1128 521 q 955 694 1128 694 l 87 694 l 87 868 z "},"3":{"ha":1389,"x_min":87,"x_max":1302,"o":"m 1128 347 l 87 347 l 87 521 l 1128 521 l 1128 694 l 87 694 l 87 868 l 1302 868 l 1302 347 q 955 0 1302 0 l 87 0 l 87 174 l 955 174 q 1128 347 1128 174 z "},"4":{"ha":1389,"x_min":87,"x_max":1302,"o":"m 1128 347 l 1128 0 l 955 0 l 955 347 l 434 347 q 87 694 87 347 l 87 868 l 260 868 l 260 694 q 434 521 260 521 l 955 521 l 955 868 l 1128 868 l 1128 521 l 1302 521 l 1302 347 l 1128 347 z "},"5":{"ha":1389,"x_min":87,"x_max":1302,"o":"m 1302 694 l 260 694 l 260 608 q 434 521 260 521 l 955 521 q 1302 260 1302 521 q 955 0 1302 0 l 87 0 l 87 174 l 955 174 q 1128 260 1128 174 q 955 347 1128 347 l 434 347 q 87 608 87 347 l 87 868 l 1302 868 l 1302 694 z "},"6":{"ha":1389,"x_min":87,"x_max":1302,"o":"m 87 521 q 434 868 87 868 l 1302 868 l 1302 694 l 434 694 q 260 521 260 694 l 955 521 q 1302 260 1302 521 q 955 0 1302 0 l 434 0 q 87 347 87 0 l 87 521 m 260 346 q 434 174 260 174 l 955 174 q 1128 260 1128 174 q 955 347 1128 347 l 434 347 l 260 346 z "},"7":{"ha":1389,"x_min":87,"x_max":1302,"o":"m 87 868 l 1302 868 l 868 0 l 659 0 l 1015 694 l 87 694 l 87 868 z "},"8":{"ha":1389,"x_min":87,"x_max":1302,"o":"m 955 521 q 1128 608 1128 521 q 955 694 1128 694 l 434 694 q 260 608 260 694 q 434 521 260 521 l 955 521 m 955 868 q 1302 608 1302 868 q 1215 434 1302 477 q 1302 260 1302 391 q 955 0 1302 0 l 434 0 q 87 260 87 0 q 174 434 87 391 q 87 608 87 477 q 434 868 87 868 l 955 868 m 955 174 q 1128 260 1128 174 q 955 347 1128 347 l 434 347 q 260 260 260 347 q 434 174 260 174 l 955 174 z "},"9":{"ha":1389,"x_min":87,"x_max":1302,"o":"m 1302 347 q 955 0 1302 0 l 87 0 l 87 174 l 955 174 q 1128 347 1128 174 l 434 347 q 87 608 87 347 q 434 868 87 868 l 955 868 q 1302 521 1302 868 l 1302 347 m 1128 522 q 955 694 1128 694 l 434 694 q 260 608 260 694 q 434 521 260 521 l 955 521 l 1128 522 z "}," ":{"ha":694,"x_min":0,"x_max":0,"o":""},"!":{"ha":347,"x_min":87,"x_max":260,"o":"m 260 868 l 260 347 l 87 347 l 87 868 l 260 868 m 260 174 l 260 0 l 87 0 l 87 174 l 260 174 z "},"\"":{"ha":694,"x_min":87,"x_max":608,"o":"m 87 521 l 87 868 l 260 868 l 260 521 l 87 521 m 434 521 l 434 868 l 608 868 l 608 521 l 434 521 z "},"#":{"ha":1389,"x_min":87,"x_max":1302,"o":"m 347 347 l 347 521 l 87 521 l 87 694 l 347 694 l 347 868 l 521 868 l 521 694 l 868 694 l 868 868 l 1042 868 l 1042 694 l 1302 694 l 1302 521 l 1042 521 l 1042 347 l 1302 347 l 1302 174 l 1042 174 l 1042 0 l 868 0 l 868 174 l 521 174 l 521 0 l 347 0 l 347 174 l 87 174 l 87 347 l 347 347 m 521 521 l 521 347 l 868 347 l 868 521 l 521 521 z "},"$":{"ha":1389,"x_min":87,"x_max":1302,"o":"m 608 868 l 608 955 l 781 955 l 781 868 l 1302 868 l 1302 694 l 434 694 q 260 608 260 694 q 434 521 260 521 l 955 521 q 1302 260 1302 521 q 955 0 1302 0 l 781 0 l 781 -87 l 608 -87 l 608 0 l 87 0 l 87 174 l 955 174 q 1128 260 1128 174 q 955 347 1128 347 l 434 347 q 87 608 87 347 q 434 868 87 868 l 608 868 z "},"%":{"ha":1082,"x_min":87,"x_max":996,"o":"m 87 0 l 787 868 l 996 868 l 301 0 l 87 0 m 127 694 l 127 868 l 301 868 l 301 694 l 127 694 m 822 0 l 822 174 l 996 174 l 996 0 l 822 0 z "},"&":{"ha":1042,"x_min":87,"x_max":955,"o":"m 434 521 l 434 868 l 608 868 l 608 521 l 955 521 l 955 347 l 608 347 l 608 0 l 434 0 l 434 347 l 87 347 l 87 521 l 434 521 z "},"'":{"ha":347,"x_min":87,"x_max":260,"o":"m 87 521 l 87 868 l 260 868 l 260 521 l 87 521 z "},"(":{"ha":1042,"x_min":87,"x_max":955,"o":"m 955 868 l 260 868 l 260 0 l 955 0 l 955 -174 l 260 -174 q 87 0 87 -174 l 87 868 q 260 1042 87 1042 l 955 1042 l 955 868 z "},")":{"ha":1042,"x_min":87,"x_max":955,"o":"m 87 1042 l 781 1042 q 955 868 955 1042 l 955 0 q 781 -174 955 -174 l 87 -174 l 87 0 l 781 0 l 781 868 l 87 868 l 87 1042 z "},"*":{"ha":640,"x_min":87,"x_max":553,"o":"m 277 697 l 277 868 l 363 868 l 363 697 l 499 800 l 553 732 l 391 608 l 553 483 l 499 415 l 363 518 l 363 347 l 277 347 l 277 518 l 141 415 l 87 483 l 250 608 l 87 732 l 141 800 l 277 697 z "},"+":{"ha":1042,"x_min":87,"x_max":955,"o":"m 434 521 l 434 868 l 608 868 l 608 521 l 955 521 l 955 347 l 608 347 l 608 0 l 434 0 l 434 347 l 87 347 l 87 521 l 434 521 z "},",":{"ha":347,"x_min":87,"x_max":260,"o":"m 260 347 l 260 0 l 87 0 l 87 347 l 260 347 z "},"-":{"ha":694,"x_min":87,"x_max":608,"o":"m 87 347 l 87 521 l 608 521 l 608 347 l 87 347 z "},".":{"ha":347,"x_min":87,"x_max":260,"o":"m 87 0 l 87 174 l 260 174 l 260 0 l 87 0 z "},"/":{"ha":1082,"x_min":87,"x_max":996,"o":"m 87 0 l 787 868 l 996 868 l 301 0 l 87 0 z "},":":{"ha":347,"x_min":87,"x_max":260,"o":"m 260 694 l 260 521 l 87 521 l 87 694 l 260 694 m 260 347 l 260 174 l 87 174 l 87 347 l 260 347 z "},";":{"ha":347,"x_min":87,"x_max":260,"o":"m 260 694 l 260 521 l 87 521 l 87 694 l 260 694 m 260 347 l 260 0 l 87 0 l 87 347 l 260 347 z "},"<":{"ha":1042,"x_min":87,"x_max":955,"o":"m 955 868 l 955 694 l 260 437 l 955 174 l 955 0 l 87 347 l 87 521 l 955 868 z "},"=":{"ha":1042,"x_min":87,"x_max":955,"o":"m 87 521 l 87 694 l 955 694 l 955 521 l 87 521 m 87 174 l 87 347 l 955 347 l 955 174 l 87 174 z "},">":{"ha":1042,"x_min":87,"x_max":955,"o":"m 955 521 l 955 347 l 87 0 l 87 174 l 781 437 l 87 694 l 87 868 l 955 521 z "},"?":{"ha":1389,"x_min":87,"x_max":1302,"o":"m 781 174 l 781 0 l 608 0 l 608 174 l 781 174 m 87 694 q 260 868 87 868 l 1128 868 q 1302 694 1302 868 l 1302 521 q 1128 347 1302 347 l 608 347 l 608 521 l 1128 521 l 1128 694 l 260 694 l 260 521 l 87 521 l 87 694 z "},"@":{"ha":1389,"x_min":87,"x_max":1302,"o":"m 1302 347 l 521 347 l 521 521 l 1128 521 l 1128 694 l 434 694 q 260 521 260 694 l 260 347 q 434 174 260 174 l 1302 174 l 1302 0 l 434 0 q 87 347 87 0 l 87 521 q 434 868 87 868 l 1302 868 l 1302 347 z "},"A":{"ha":1389,"x_min":87,"x_max":1302,"o":"m 260 174 l 260 0 l 87 0 l 87 521 q 434 868 87 868 l 955 868 q 1302 521 1302 868 l 1302 0 l 1128 0 l 1128 174 l 260 174 m 1128 347 l 1128 521 q 955 694 1128 694 l 434 694 q 260 521 260 694 l 260 347 l 1128 347 z "},"B":{"ha":1389,"x_min":87,"x_max":1302,"o":"m 955 521 q 1128 608 1128 521 q 955 694 1128 694 l 260 694 l 260 521 l 955 521 m 260 347 l 260 174 l 955 174 q 1128 260 1128 174 q 955 347 1128 347 l 260 347 m 1302 608 q 1215 434 1302 477 q 1302 260 1302 391 q 955 0 1302 0 l 87 0 l 87 868 l 955 868 q 1302 608 1302 868 z "},"C":{"ha":1389,"x_min":87,"x_max":1302,"o":"m 1302 0 l 434 0 q 87 347 87 0 l 87 521 q 434 868 87 868 l 1302 868 l 1302 694 l 434 694 q 260 521 260 694 l 260 347 q 434 174 260 174 l 1302 174 l 1302 0 z "},"D":{"ha":1389,"x_min":87,"x_max":1302,"o":"m 260 694 l 260 174 l 955 174 q 1128 347 1128 174 l 1128 521 q 955 694 1128 694 l 260 694 m 955 868 q 1302 521 1302 868 l 1302 347 q 955 0 1302 0 l 87 0 l 87 868 l 955 868 z "},"E":{"ha":1389,"x_min":87,"x_max":1302,"o":"m 260 347 q 434 174 260 174 l 1302 174 l 1302 0 l 434 0 q 87 347 87 0 l 87 521 q 434 868 87 868 l 1302 868 l 1302 694 l 434 694 q 260 521 260 694 l 1302 521 l 1302 347 l 260 347 z "},"F":{"ha":1389,"x_min":87,"x_max":1302,"o":"m 260 347 l 260 0 l 87 0 l 87 521 q 434 868 87 868 l 1302 868 l 1302 694 l 434 694 q 260 521 260 694 l 1302 521 l 1302 347 l 260 347 z "},"G":{"ha":1389,"x_min":87,"x_max":1302,"o":"m 1302 0 l 434 0 q 87 347 87 0 l 87 521 q 434 868 87 868 l 1302 868 l 1302 694 l 434 694 q 260 521 260 694 l 260 347 q 434 174 260 174 l 1128 174 l 1128 347 l 694 347 l 694 521 l 1302 521 l 1302 0 z "},"H":{"ha":1389,"x_min":87,"x_max":1302,"o":"m 260 868 l 260 521 l 1128 521 l 1128 868 l 1302 868 l 1302 0 l 1128 0 l 1128 347 l 260 347 l 260 0 l 87 0 l 87 868 l 260 868 z "},"I":{"ha":347,"x_min":87,"x_max":260,"o":"m 260 868 l 260 0 l 87 0 l 87 868 l 260 868 z "},"J":{"ha":1389,"x_min":87,"x_max":1302,"o":"m 260 347 q 434 174 260 174 l 955 174 q 1128 347 1128 174 l 1128 868 l 1302 868 l 1302 347 q 955 0 1302 0 l 434 0 q 87 347 87 0 l 87 434 l 260 434 l 260 347 z "},"K":{"ha":1389,"x_min":87,"x_max":1302,"o":"m 955 521 q 1128 608 1128 521 l 1128 868 l 1302 868 l 1302 608 q 955 347 1302 347 q 1128 174 955 174 l 1302 174 l 1302 0 l 1128 0 q 781 347 781 0 l 260 347 l 260 0 l 87 0 l 87 868 l 260 868 l 260 521 l 955 521 z "},"L":{"ha":1389,"x_min":87,"x_max":1302,"o":"m 1302 0 l 434 0 q 87 347 87 0 l 87 868 l 260 868 l 260 347 q 434 174 260 174 l 1302 174 l 1302 0 z "},"M":{"ha":1736,"x_min":87,"x_max":1649,"o":"m 781 694 l 260 694 l 260 0 l 87 0 l 87 868 l 1302 868 q 1649 521 1649 868 l 1649 0 l 1476 0 l 1476 521 q 1302 694 1476 694 l 955 694 l 955 0 l 781 0 l 781 694 z "},"N":{"ha":1389,"x_min":87,"x_max":1302,"o":"m 1128 0 l 1128 521 q 955 694 1128 694 l 260 694 l 260 0 l 87 0 l 87 868 l 955 868 q 1302 521 1302 868 l 1302 0 l 1128 0 z "},"O":{"ha":1389,"x_min":87,"x_max":1302,"o":"m 434 694 q 260 521 260 694 l 260 347 q 434 174 260 174 l 955 174 q 1128 347 1128 174 l 1128 521 q 955 694 1128 694 l 434 694 m 434 868 l 955 868 q 1302 521 1302 868 l 1302 347 q 955 0 1302 0 l 434 0 q 87 347 87 0 l 87 521 q 434 868 87 868 z "},"P":{"ha":1389,"x_min":87,"x_max":1302,"o":"m 955 521 q 1128 608 1128 521 q 955 694 1128 694 l 260 694 l 260 521 l 955 521 m 260 0 l 87 0 l 87 868 l 955 868 q 1302 608 1302 868 q 955 347 1302 347 l 260 347 l 260 0 z "},"Q":{"ha":1389,"x_min":87,"x_max":1302,"o":"m 788 0 l 434 0 q 87 347 87 0 l 87 521 q 434 868 87 868 l 955 868 q 1302 521 1302 868 l 1302 347 q 970 0 1302 8 q 1128 -87 1005 -87 l 1302 -87 l 1302 -260 l 1128 -260 q 788 0 827 -260 m 955 174 q 1128 347 1128 174 l 1128 521 q 955 694 1128 694 l 434 694 q 260 521 260 694 l 260 347 q 434 174 260 174 l 955 174 z "},"R":{"ha":1389,"x_min":87,"x_max":1302,"o":"m 781 347 l 260 347 l 260 0 l 87 0 l 87 868 l 955 868 q 1302 608 1302 868 q 955 347 1302 347 q 1128 174 955 174 l 1302 174 l 1302 0 l 1128 0 q 781 347 781 0 m 955 521 q 1128 608 1128 521 q 955 694 1128 694 l 260 694 l 260 521 l 955 521 z "},"S":{"ha":1389,"x_min":87,"x_max":1302,"o":"m 1302 694 l 434 694 q 260 608 260 694 q 434 521 260 521 l 955 521 q 1302 260 1302 521 q 955 0 1302 0 l 87 0 l 87 174 l 955 174 q 1128 260 1128 174 q 955 347 1128 347 l 434 347 q 87 608 87 347 q 434 868 87 868 l 1302 868 l 1302 694 z "},"T":{"ha":1389,"x_min":87,"x_max":1302,"o":"m 87 868 l 1302 868 l 1302 694 l 781 694 l 781 0 l 608 0 l 608 694 l 87 694 l 87 868 z "},"U":{"ha":1389,"x_min":87,"x_max":1302,"o":"m 260 868 l 260 347 q 434 174 260 174 l 1128 174 l 1128 868 l 1302 868 l 1302 0 l 434 0 q 87 347 87 0 l 87 868 l 260 868 z "},"V":{"ha":1389,"x_min":87,"x_max":1302,"o":"m 1302 868 l 781 0 l 608 0 l 87 868 l 285 868 l 694 218 l 1099 868 l 1302 868 z "},"W":{"ha":1736,"x_min":87,"x_max":1649,"o":"m 955 174 l 1476 174 l 1476 868 l 1649 868 l 1649 0 l 434 0 q 87 347 87 0 l 87 868 l 260 868 l 260 347 q 434 174 260 174 l 781 174 l 781 868 l 955 868 l 955 174 z "},"X":{"ha":1389,"x_min":87,"x_max":1302,"o":"m 564 434 l 87 868 l 347 868 l 694 552 l 1042 868 l 1302 868 l 825 434 l 1302 0 l 1042 0 l 694 316 l 347 0 l 87 0 l 564 434 z "},"Y":{"ha":1389,"x_min":87,"x_max":1302,"o":"m 87 868 l 260 868 l 260 694 q 434 521 260 521 l 1128 521 l 1128 868 l 1302 868 l 1302 347 q 955 0 1302 0 l 87 0 l 87 174 l 955 174 q 1128 347 1128 174 l 434 347 q 87 694 87 347 l 87 868 z "},"Z":{"ha":1389,"x_min":87,"x_max":1302,"o":"m 1302 0 l 87 0 l 868 694 l 87 694 l 87 868 l 1302 868 l 521 174 l 1302 174 l 1302 0 z "},"[":{"ha":1042,"x_min":87,"x_max":955,"o":"m 955 868 l 260 868 l 260 0 l 955 0 l 955 -174 l 260 -174 q 87 0 87 -174 l 87 868 q 260 1042 87 1042 l 955 1042 l 955 868 z "},"\\":{"ha":1082,"x_min":87,"x_max":996,"o":"m 781 0 l 87 868 l 296 868 l 996 0 l 781 0 z "},"]":{"ha":1042,"x_min":87,"x_max":955,"o":"m 87 1042 l 781 1042 q 955 868 955 1042 l 955 0 q 781 -174 955 -174 l 87 -174 l 87 0 l 781 0 l 781 868 l 87 868 l 87 1042 z "},"^":{"ha":694,"x_min":87,"x_max":608,"o":"m 87 694 l 350 1042 l 608 694 l 434 694 l 353 803 l 260 694 l 87 694 z "},"_":{"ha":1042,"x_min":87,"x_max":955,"o":"m 87 -174 l 87 0 l 955 0 l 955 -174 l 87 -174 z "},"`":{"ha":521,"x_min":87,"x_max":434,"o":"m 87 1042 l 260 1042 l 434 694 l 260 694 l 87 1042 z "},"a":{"ha":1389,"x_min":87,"x_max":1302,"o":"m 260 174 l 260 0 l 87 0 l 87 521 q 434 868 87 868 l 955 868 q 1302 521 1302 868 l 1302 0 l 1128 0 l 1128 174 l 260 174 m 1128 347 l 1128 521 q 955 694 1128 694 l 434 694 q 260 521 260 694 l 260 347 l 1128 347 z "},"b":{"ha":1389,"x_min":87,"x_max":1302,"o":"m 955 521 q 1128 608 1128 521 q 955 694 1128 694 l 260 694 l 260 521 l 955 521 m 260 347 l 260 174 l 955 174 q 1128 260 1128 174 q 955 347 1128 347 l 260 347 m 1302 608 q 1215 434 1302 477 q 1302 260 1302 391 q 955 0 1302 0 l 87 0 l 87 868 l 955 868 q 1302 608 1302 868 z "},"c":{"ha":1389,"x_min":87,"x_max":1302,"o":"m 1302 0 l 434 0 q 87 347 87 0 l 87 521 q 434 868 87 868 l 1302 868 l 1302 694 l 434 694 q 260 521 260 694 l 260 347 q 434 174 260 174 l 1302 174 l 1302 0 z "},"d":{"ha":1389,"x_min":87,"x_max":1302,"o":"m 260 694 l 260 174 l 955 174 q 1128 347 1128 174 l 1128 521 q 955 694 1128 694 l 260 694 m 955 868 q 1302 521 1302 868 l 1302 347 q 955 0 1302 0 l 87 0 l 87 868 l 955 868 z "},"e":{"ha":1389,"x_min":87,"x_max":1302,"o":"m 1302 0 l 434 0 q 87 347 87 0 l 87 521 q 434 868 87 868 l 1302 868 l 1302 694 l 434 694 q 260 521 260 694 l 260 347 q 434 174 260 174 l 1302 174 l 1302 0 m 1302 521 l 1302 347 l 434 347 l 434 521 l 1302 521 z "},"f":{"ha":1389,"x_min":87,"x_max":1302,"o":"m 87 0 l 87 521 q 434 868 87 868 l 1302 868 l 1302 694 l 434 694 q 260 521 260 694 l 260 0 l 87 0 m 1302 521 l 1302 347 l 434 347 l 434 521 l 1302 521 z "},"g":{"ha":1389,"x_min":87,"x_max":1302,"o":"m 1302 0 l 434 0 q 87 347 87 0 l 87 521 q 434 868 87 868 l 1302 868 l 1302 694 l 434 694 q 260 521 260 694 l 260 347 q 434 174 260 174 l 1128 174 l 1128 347 l 694 347 l 694 521 l 1302 521 l 1302 0 z "},"h":{"ha":1389,"x_min":87,"x_max":1302,"o":"m 260 868 l 260 521 l 1128 521 l 1128 868 l 1302 868 l 1302 0 l 1128 0 l 1128 347 l 260 347 l 260 0 l 87 0 l 87 868 l 260 868 z "},"i":{"ha":347,"x_min":87,"x_max":260,"o":"m 260 868 l 260 0 l 87 0 l 87 868 l 260 868 z "},"j":{"ha":1389,"x_min":87,"x_max":1302,"o":"m 260 347 q 434 174 260 174 l 955 174 q 1128 347 1128 174 l 1128 868 l 1302 868 l 1302 347 q 955 0 1302 0 l 434 0 q 87 347 87 0 l 87 434 l 260 434 l 260 347 z "},"k":{"ha":1389,"x_min":87,"x_max":1302,"o":"m 955 521 q 1128 608 1128 521 l 1128 868 l 1302 868 l 1302 608 q 955 347 1302 347 q 1128 174 955 174 l 1302 174 l 1302 0 l 1128 0 q 781 347 781 0 l 260 347 l 260 0 l 87 0 l 87 868 l 260 868 l 260 521 l 955 521 z "},"l":{"ha":1389,"x_min":87,"x_max":1302,"o":"m 1302 0 l 434 0 q 87 347 87 0 l 87 868 l 260 868 l 260 347 q 434 174 260 174 l 1302 174 l 1302 0 z "},"m":{"ha":1736,"x_min":87,"x_max":1649,"o":"m 781 694 l 260 694 l 260 0 l 87 0 l 87 868 l 1302 868 q 1649 521 1649 868 l 1649 0 l 1476 0 l 1476 521 q 1302 694 1476 694 l 955 694 l 955 0 l 781 0 l 781 694 z "},"n":{"ha":1389,"x_min":87,"x_max":1302,"o":"m 1128 0 l 1128 521 q 955 694 1128 694 l 260 694 l 260 0 l 87 0 l 87 868 l 955 868 q 1302 521 1302 868 l 1302 0 l 1128 0 z "},"o":{"ha":1389,"x_min":87,"x_max":1302,"o":"m 434 694 q 260 521 260 694 l 260 347 q 434 174 260 174 l 955 174 q 1128 347 1128 174 l 1128 521 q 955 694 1128 694 l 434 694 m 434 868 l 955 868 q 1302 521 1302 868 l 1302 347 q 955 0 1302 0 l 434 0 q 87 347 87 0 l 87 521 q 434 868 87 868 z "},"p":{"ha":1389,"x_min":87,"x_max":1302,"o":"m 955 521 q 1128 608 1128 521 q 955 694 1128 694 l 260 694 l 260 521 l 955 521 m 260 0 l 87 0 l 87 868 l 955 868 q 1302 608 1302 868 q 955 347 1302 347 l 260 347 l 260 0 z "},"q":{"ha":1389,"x_min":87,"x_max":1302,"o":"m 788 0 l 434 0 q 87 347 87 0 l 87 521 q 434 868 87 868 l 955 868 q 1302 521 1302 868 l 1302 347 q 970 0 1302 8 q 1128 -87 1005 -87 l 1302 -87 l 1302 -260 l 1128 -260 q 788 0 827 -260 m 955 174 q 1128 347 1128 174 l 1128 521 q 955 694 1128 694 l 434 694 q 260 521 260 694 l 260 347 q 434 174 260 174 l 955 174 z "},"r":{"ha":1389,"x_min":87,"x_max":1302,"o":"m 781 347 l 260 347 l 260 0 l 87 0 l 87 868 l 955 868 q 1302 608 1302 868 q 955 347 1302 347 q 1128 174 955 174 l 1302 174 l 1302 0 l 1128 0 q 781 347 781 0 m 955 521 q 1128 608 1128 521 q 955 694 1128 694 l 260 694 l 260 521 l 955 521 z "},"s":{"ha":1389,"x_min":87,"x_max":1302,"o":"m 1302 694 l 434 694 q 260 608 260 694 q 434 521 260 521 l 955 521 q 1302 260 1302 521 q 955 0 1302 0 l 87 0 l 87 174 l 955 174 q 1128 260 1128 174 q 955 347 1128 347 l 434 347 q 87 608 87 347 q 434 868 87 868 l 1302 868 l 1302 694 z "},"t":{"ha":1389,"x_min":87,"x_max":1302,"o":"m 87 868 l 1302 868 l 1302 694 l 781 694 l 781 0 l 608 0 l 608 694 l 87 694 l 87 868 z "},"u":{"ha":1389,"x_min":87,"x_max":1302,"o":"m 260 868 l 260 347 q 434 174 260 174 l 1128 174 l 1128 868 l 1302 868 l 1302 0 l 434 0 q 87 347 87 0 l 87 868 l 260 868 z "},"v":{"ha":1389,"x_min":87,"x_max":1302,"o":"m 1302 868 l 781 0 l 608 0 l 87 868 l 285 868 l 694 218 l 1099 868 l 1302 868 z "},"w":{"ha":1736,"x_min":87,"x_max":1649,"o":"m 955 174 l 1476 174 l 1476 868 l 1649 868 l 1649 0 l 434 0 q 87 347 87 0 l 87 868 l 260 868 l 260 347 q 434 174 260 174 l 781 174 l 781 868 l 955 868 l 955 174 z "},"x":{"ha":1389,"x_min":87,"x_max":1302,"o":"m 564 434 l 87 868 l 347 868 l 694 552 l 1042 868 l 1302 868 l 825 434 l 1302 0 l 1042 0 l 694 316 l 347 0 l 87 0 l 564 434 z "},"y":{"ha":1389,"x_min":87,"x_max":1302,"o":"m 87 868 l 260 868 l 260 694 q 434 521 260 521 l 1128 521 l 1128 868 l 1302 868 l 1302 347 q 955 0 1302 0 l 87 0 l 87 174 l 955 174 q 1128 347 1128 174 l 434 347 q 87 694 87 347 l 87 868 z "},"z":{"ha":1389,"x_min":87,"x_max":1302,"o":"m 1302 0 l 87 0 l 868 694 l 87 694 l 87 868 l 1302 868 l 521 174 l 1302 174 l 1302 0 z "},"{":{"ha":608,"x_min":87,"x_max":521,"o":"m 521 868 l 260 868 l 260 0 l 521 0 l 521 -174 l 260 -174 q 87 0 87 -174 l 87 868 q 260 1042 87 1042 l 521 1042 l 521 868 z "},"|":{"ha":347,"x_min":87,"x_max":260,"o":"m 87 -174 l 87 1042 l 260 1042 l 260 -174 l 87 -174 z "},"}":{"ha":608,"x_min":87,"x_max":521,"o":"m 87 1042 l 347 1042 q 521 868 521 1042 l 521 0 q 347 -174 521 -174 l 87 -174 l 87 0 l 347 0 l 347 868 l 87 868 l 87 1042 z "},"~":{"ha":694,"x_min":87,"x_max":608,"o":"m 87 480 q 282 575 206 575 q 347 553 320 575 q 412 532 377 532 q 608 621 491 532 l 608 412 q 412 317 488 317 q 347 339 374 317 q 279 361 317 361 q 87 274 203 361 l 87 480 z "},"‘":{"ha":347,"x_min":87,"x_max":260,"o":"m 87 521 l 87 868 l 260 868 l 260 521 l 87 521 z "},"’":{"ha":347,"x_min":87,"x_max":260,"o":"m 87 521 l 87 868 l 260 868 l 260 521 l 87 521 z "},"“":{"ha":694,"x_min":87,"x_max":608,"o":"m 87 521 l 87 868 l 260 868 l 260 521 l 87 521 m 434 521 l 434 868 l 608 868 l 608 521 l 434 521 z "},"”":{"ha":694,"x_min":87,"x_max":608,"o":"m 87 521 l 87 868 l 260 868 l 260 521 l 87 521 m 434 521 l 434 868 l 608 868 l 608 521 l 434 521 z "},"£":{"ha":1389,"x_min":87,"x_max":1302,"o":"m 174 521 l 174 694 q 347 868 174 868 l 1128 868 q 1302 694 1302 868 l 1302 608 l 1128 608 l 1128 694 l 347 694 l 347 521 l 1042 521 l 1042 347 l 347 347 l 347 174 l 1302 174 l 1302 0 l 174 0 l 174 347 l 87 347 l 87 521 l 174 521 z "},"¥":{"ha":1389,"x_min":87,"x_max":1302,"o":"m 781 174 l 781 0 l 608 0 l 608 174 l 174 174 l 174 347 l 608 347 l 87 868 l 304 868 l 694 484 l 1088 868 l 1302 868 l 781 347 l 1215 347 l 1215 174 l 781 174 z "},"€":{"ha":1389,"x_min":87,"x_max":1302,"o":"m 1302 0 l 347 0 q 174 174 174 0 l 174 347 l 87 347 l 87 521 l 174 521 l 174 694 q 347 868 174 868 l 1302 868 l 1302 694 l 347 694 l 347 521 l 955 521 l 955 347 l 347 347 l 347 174 l 1302 174 l 1302 0 z "},"¢":{"ha":1389,"x_min":87,"x_max":1302,"o":"m 608 868 l 608 955 l 781 955 l 781 868 l 1302 868 l 1302 694 l 260 694 l 260 174 l 1302 174 l 1302 0 l 781 0 l 781 -87 l 608 -87 l 608 0 l 260 0 q 87 174 87 0 l 87 694 q 260 868 87 868 l 608 868 z "},"¡":{"ha":347,"x_min":87,"x_max":260,"o":"m 87 0 l 87 521 l 260 521 l 260 0 l 87 0 m 87 694 l 87 868 l 260 868 l 260 694 l 87 694 z "},"¿":{"ha":1389,"x_min":87,"x_max":1302,"o":"m 608 694 l 608 868 l 781 868 l 781 694 l 608 694 m 87 347 l 260 347 l 260 174 l 1128 174 l 1128 347 l 608 347 l 608 521 l 1128 521 q 1302 347 1302 521 l 1302 174 q 1128 0 1302 0 l 260 0 q 87 174 87 0 l 87 347 z "},"×":{"ha":1042,"x_min":87,"x_max":955,"o":"m 412 434 l 87 868 l 304 868 l 521 578 l 738 868 l 955 868 l 629 434 l 955 0 l 738 0 l 521 290 l 304 0 l 87 0 l 412 434 z "},"÷":{"ha":1042,"x_min":87,"x_max":955,"o":"m 87 347 l 87 521 l 955 521 l 955 347 l 87 347 m 608 868 l 608 694 l 434 694 l 434 868 l 608 868 m 608 174 l 608 0 l 434 0 l 434 174 l 608 174 z "},"©":{"ha":1042,"x_min":87,"x_max":955,"o":"m 87 174 l 87 694 q 260 868 87 868 l 955 868 l 955 694 l 260 694 l 260 174 l 955 174 l 955 0 l 260 0 q 87 174 87 0 z "},"®":{"ha":1042,"x_min":87,"x_max":955,"o":"m 260 694 l 260 521 l 781 521 l 781 694 l 260 694 m 372 347 l 260 458 l 260 0 l 87 0 l 87 868 l 781 868 q 955 694 955 868 l 955 521 q 784 347 955 347 l 608 347 l 955 0 l 719 0 l 372 347 z "},"™":{"ha":694,"x_min":87,"x_max":608,"o":"m 87 521 l 87 868 l 260 868 l 260 521 l 87 521 m 434 521 l 434 868 l 608 868 l 608 521 l 434 521 z "}}}
